# AST/ASF file generated using VICON BodyLanguage
# -----------------------------------------------
:version 1.10
:name VICON
:units
  mass 1.0
  length 0.45
  angle deg
:documentation
   .ast/.asf automatically generated from VICON data using
   VICON BodyBuilder and BodyLanguage model FoxedUp or BRILLIANT.MOD
:root
   order TX TY TZ RX RY RZ
   axis XYZ
   position 0 0 0  
   orientation 0 0 0 
:bonedata
  begin
     id 1 
     name lhipjoint
     direction 0.627412 -0.730575 0.26947 
     length 2.49821 
     axis 0 0 0  XYZ
  end
  begin
     id 2 
     name lfemur
     direction 0.34202 -0.939693 0  
     length 6.89165  
     axis 0 0 20  XYZ
    dof rx ry rz
    limits (-160.0 20.0)
           (-70.0 70.0)
           (-60.0 70.0)
  end
  begin
     id 3 
     name ltibia
     direction 0.34202 -0.939693 0   
     length 7.91287   
     axis 0 0 20   XYZ
    dof rx
    limits (-10.0 170.0)
  end
  begin
     id 4 
     name lfoot
     direction 0.0941675 -0.258723 0.96135   
     length 2.16919   
     axis -90 7.62852e-016 20   XYZ
    dof rx rz
    limits (-45.0 90.0)
           (-70.0 20.0)
  end
  begin
     id 5 
     name ltoes
     direction 1.5347e-011 -4.21941e-011 1   
     length 1.08535   
     axis -90 7.62852e-016 20   XYZ
    dof rx
    limits (-90.0 20.0)
  end
  begin
     id 6 
     name rhipjoint
     direction -0.614241 -0.740361 0.27308   
     length 2.46519  
     axis 0 0 0  XYZ 
  end
  begin
     id 7 
     name rfemur
     direction -0.34202 -0.939693 0   
     length 7.27512   
     axis 0 0 -20   XYZ
    dof rx ry rz
    limits (-160.0 20.0)
           (-70.0 70.0)
           (-70.0 60.0)
  end
  begin
     id 8 
     name rtibia
     direction -0.34202 -0.939693 0   
     length 7.89523   
     axis 0 0 -20   XYZ
    dof rx
    limits (-10.0 170.0)
 end
 begin
     id 9 
     name rfoot
     direction -0.0860444 -0.236405 0.967837   
     length 2.29534  
     axis -90 -7.62852e-016 -20   XYZ
    dof rx rz
    limits (-45.0 90.0)
           (-20.0 70.0)
  end
  begin
     id 10 
     name rtoes
     direction -1.53608e-011 -4.21861e-011 1   
     length 1.14915   
     axis -90 -7.62852e-016 -20   XYZ
    dof rx
    limits (-90.0 20.0)
  end
  begin
     id 11 
     name lowerback
     direction -0.00734074 0.997215 -0.0742143   
     length 2.13469   
     axis 0 0 0   XYZ
    dof rx ry rz
    limits (-20.0 45.0)
           (-30.0 30.0)
           (-30.0 30.0)
  end
  begin
     id 12 
     name upperback
     direction 0.0285728 0.99958 -0.00488656   
     length 2.13416   
     axis 0 0 0   XYZ
    dof rx ry rz
    limits (-20.0 45.0)
           (-30.0 30.0)
           (-30.0 30.0)
  end
  begin
     id 13 
     name thorax
     direction 0.0316844 0.999056 0.0297249   
     length 2.14463   
     axis 0 0 0   XYZ
    dof rx ry rz
    limits (-20.0 45.0)
           (-30.0 30.0)
           (-30.0 30.0)
  end
  begin
     id 14 
     name lowerneck
     direction -0.0281545 0.996802 0.0747864   
     length 1.79004   
     axis 0 0 0   XYZ
    dof rx ry rz
    limits (-20.0 45.0)
           (-30.0 30.0)
           (-30.0 30.0)
  end
  begin
     id 15 
     name upperneck
     direction -0.00100185 0.982732 -0.185031   
     length 1.79988   
     axis 0 0 0   XYZ
    dof rx ry rz
    limits (-20.0 45.0)
           (-30.0 30.0)
           (-30.0 30.0)
  end
  begin
     id 16
     name head
     direction 0.00403747 0.997539 -0.0700022  
     length 1.81696  
     axis 0 0 0   XYZ
    dof rx ry rz
    limits (-20.0 45.0)
           (-30.0 30.0)
           (-30.0 30.0)
  end
  begin
     id 17 
     name lclavicle
     direction 0.959882 0.242905 -0.140082  
     length 3.87755  
     axis 0 0 0   XYZ
    dof ry rz
    limits (-20.0 10.0)
           (0.0 20.0)
  end
  begin
     id 18 
     name lhumerus
     direction 1 -4.4895e-011 3.76166e-027   
     length 5.14601   
     axis 180 -30 -90   XYZ
    dof rx ry rz
    limits (-60.0 90.0)
           (-90.0 90.0)
           (-90.0 90.0)
  end
  begin
     id 19
     name lradius
     direction 1 -4.48966e-011 -3.24039e-027   
     length 3.64452   
     axis 180 -30 -90   XYZ
    dof rx
    limits (-10.0 170.0)
  end
  begin
     id 20
     name lwrist
     direction 1 -4.48999e-011 2.57119e-027   
     length 1.82226   
     axis -1.61769e-015 90 90   XYZ
    dof ry
    limits (-180.0 0.0)
 end
  begin
     id 21 
     name lhand
     direction 1 -4.48961e-011 5.13984e-027   
     length 0.56228   
     axis -3.27988e-015 90 90   XYZ
    dof rx rz
    limits (-90.0 90.0)
           (-45.0 45.0)
  end
  begin
     id 22 
     name lfingers
     direction 1 -4.48991e-011 1.02836e-026   
     length 0.453325   
     axis -6.5598e-015 90 90   XYZ
    dof rx
    limits (0.0 90.0)
  end
  begin
     id 23
     name lthumb
     direction 0.707107 -6.34956e-011 0.707107   
     length 0.650886   
     axis -90 45 2.19363e-014   XYZ
    dof rx rz
    limits (-45.0 45.0)
           (-45.0 45.0)
  end
  begin
     id 24 
     name rclavicle
     direction -0.929201 0.345171 -0.132073   
     length 3.55416  
     axis 0 0 0   XYZ 
    dof ry rz
    limits (-10.0 20.0)
           (-20.0 0.0)
  end
  begin
     id 25 
     name rhumerus
     direction -1 -4.48979e-011 4.53734e-027  
     length 5.33913   
     axis 180 30 90   XYZ
    dof rx ry rz
    limits (-90.0 60.0)
           (-90.0 90.0)
           (-90.0 90.0)
  end
  begin
     id 26 
     name rradius
     direction -1 -4.4896e-011 -2.24007e-027   
     length 3.56478   
     axis 180 30 90   XYZ
    dof rx
    limits (-10.0 170.0)
  end
  begin
     id 27 
     name rwrist
     direction -1 -4.48923e-011 2.56866e-027   
     length 1.78239   
     axis -1.61769e-015 -90 -90   XYZ
    dof ry
    limits (-180.0 0.0)
  end
  begin
     id 28
     name rhand
     direction -1 -4.48914e-011 5.13667e-027   
     length 0.857474   
     axis -3.27988e-015 -90 -90   XYZ
    dof rx rz
    limits (-90.0 90.0)
           (-45.0 45.0)
  end
  begin
     id 29
     name rfingers
     direction -1 -4.49112e-011 1.02998e-026   
     length 0.691318   
     axis -6.5598e-015 -90 -90   XYZ
    dof rx
    limits (0.0 90.0)
  end
  begin
     id 30
     name rthumb
     direction -0.707107 -6.34979e-011 0.707107   
     length 0.992598   
     axis -90 -45 -2.19363e-014   XYZ
    dof rx rz
    limits (-45.0 45.0)
           (-45.0 45.0)
  end
:hierarchy
  begin
    root lhipjoint rhipjoint lowerback
    lhipjoint lfemur
    lfemur ltibia
    ltibia lfoot
    lfoot ltoes
    rhipjoint rfemur
    rfemur rtibia
    rtibia rfoot
    rfoot rtoes
    lowerback upperback
    upperback thorax
    thorax lowerneck lclavicle rclavicle
    lowerneck upperneck
    upperneck head
    lclavicle lhumerus
    lhumerus lradius
    lradius lwrist
    lwrist lhand lthumb
    lhand lfingers
    rclavicle rhumerus
    rhumerus rradius
    rradius rwrist
    rwrist rhand rthumb
    rhand rfingers
  end

#!OML:ASF F:\VICON\USERDATA\INSTALL\Justin4\Justin4.ASF
:FULLY-SPECIFIED
:DEGREES
1914
root -11.2905 17.3654 9.17075 1.70837 4.15187 -1.94602
lowerback 11.938 1.23477 0.720152
upperback 2.78141 1.76189 0.819888
thorax -3.78238 0.868874 0.184615
lowerneck -14.3585 0.913615 -7.57958
upperneck 15.5904 2.39159 2.93884
head 7.01248 0.967193 2.43833
rclavicle 3.98812e-015 -2.5842e-015
rhumerus -13.0166 9.61736 -80.9684
rradius 137.293
rwrist -4.27306
rhand -4.73838 25.9261
rfingers 7.12502
rthumb 21.0448 -362.952
lclavicle 3.98812e-015 -2.5842e-015
lhumerus 4.83428 -7.40219 83.6545
lradius 133.592
lwrist 10.2407
lhand -4.83792 11.9962
lfingers 7.12502
lthumb 20.9491 40.8849
rfemur -7.70787 -5.50475 17.7241
rtibia 52.5782
rfoot -7.54458 -13.379
rtoes -17.9169
lfemur -25.9403 0.30164 -1.93678
ltibia 41.1791
lfoot 2.00878 -7.84422
ltoes -32.5612
1915
root -11.3145 17.2628 9.11051 1.94182 3.92117 -2.32728
lowerback 12.2218 1.48489 1.30235
upperback 2.43266 2.17291 0.793679
thorax -4.27986 1.0615 -0.245551
lowerneck -14.5157 0.823545 -7.5507
upperneck 15.9094 2.31013 2.76727
head 7.15177 0.907501 2.37722
rclavicle -1.61513e-015 1.4561e-014
rhumerus -13.2686 9.58182 -80.9362
rradius 137.045
rwrist -4.45845
rhand -4.91993 25.5508
rfingers 7.12502
rthumb 20.8703 -363.347
lclavicle -1.61513e-015 1.4561e-014
lhumerus 3.95592 -7.22083 83.8562
lradius 133.783
lwrist 10.0443
lhand -5.3077 11.2308
lfingers 7.12502
lthumb 20.4978 40.1688
rfemur -6.57219 -4.69101 18.4566
rtibia 50.8341
rfoot -10.5481 -14.4001
rtoes -21.2722
lfemur -27.2087 0.319591 -1.03609
ltibia 42.9224
lfoot 1.95426 -8.77567
ltoes -32.9132
1916
root -11.3347 17.1613 9.03338 2.24438 3.69484 -2.83168
lowerback 12.7783 1.71947 2.09674
upperback 1.99492 2.60861 0.797472
thorax -5.00522 1.25367 -0.784392
lowerneck -14.6542 0.684628 -7.66909
upperneck 16.1827 2.18364 2.65276
head 7.27355 0.823285 2.35282
rclavicle 2.02388e-014 1.635e-014
rhumerus -13.7286 9.52848 -80.9777
rradius 136.925
rwrist -4.47071
rhand -4.99766 25.2095
rfingers 7.12502
rthumb 20.7957 -363.696
lclavicle 2.02388e-014 1.635e-014
lhumerus 3.23827 -7.26601 84.0495
lradius 133.868
lwrist 9.57616
lhand -5.88761 10.7367
lfingers 7.12502
lthumb 19.9404 39.7337
rfemur -6.05772 -4.04783 19.2615
rtibia 49.6868
rfoot -12.4789 -15.5851
rtoes -21.9566
lfemur -28.6893 0.585756 -0.0750963
ltibia 44.9855
lfoot 1.41688 -10.4466
ltoes -33.0425
1917
root -11.3436 17.0527 8.94901 2.37759 3.38682 -3.43595
lowerback 13.5209 1.90085 3.0321
upperback 1.62257 3.0168 0.839658
thorax -5.752 1.4193 -1.37256
lowerneck -14.6562 0.618518 -7.7739
upperneck 16.3055 2.14068 2.53958
head 7.31795 0.782955 2.33048
rclavicle -1.78658e-014 2.23633e-015
rhumerus -14.0453 9.56428 -81.0871
rradius 136.703
rwrist -4.23618
rhand -5.05935 25.0453
rfingers 7.12502
rthumb 20.7364 -363.867
lclavicle -1.78658e-014 2.23633e-015
lhumerus 2.40545 -7.2107 84.2529
lradius 134.058
lwrist 9.34316
lhand -5.96831 10.3649
lfingers 7.12502
lthumb 19.8628 39.3699
rfemur -5.94632 -3.6532 20.0202
rtibia 49.1449
rfoot -14.1063 -16.5187
rtoes -23.0937
lfemur -30.0265 1.28171 0.887817
ltibia 47.2098
lfoot 0.845527 -12.31
ltoes -33.4557
1918
root -11.3449 16.9418 8.88119 2.12688 3.07353 -3.918
lowerback 14.3567 2.03941 3.83212
upperback 1.50811 3.36524 0.906598
thorax -6.27974 1.55675 -1.85448
lowerneck -14.7331 0.565071 -7.92133
upperneck 16.5202 2.09089 2.64547
head 7.40175 0.755168 2.38889
rclavicle -2.60905e-015 1.07344e-014
rhumerus -13.917 9.60223 -81.0661
rradius 136.304
rwrist -4.04979
rhand -5.31295 25.0102
rfingers 7.12502
rthumb 20.4927 -363.928
lclavicle -2.60905e-015 1.07344e-014
lhumerus 1.71181 -7.1174 84.535
lradius 134.444
lwrist 9.28893
lhand -5.4836 10.4429
lfingers 7.12502
lthumb 20.3287 39.3989
rfemur -5.73569 -3.71343 20.4783
rtibia 49.1347
rfoot -15.5696 -16.9315
rtoes -24.7759
lfemur -30.8747 1.92435 1.64151
ltibia 49.427
lfoot 0.529548 -13.316
ltoes -33.5525
1919
root -11.3413 16.8352 8.81503 1.83472 2.67622 -4.18504
lowerback 15.2157 2.18812 4.35441
upperback 1.4633 3.69468 0.956273
thorax -6.75535 1.68876 -2.20193
lowerneck -14.7706 0.530571 -7.91207
upperneck 16.509 2.06842 2.52322
head 7.40825 0.733808 2.34504
rclavicle 3.74461e-014 -1.69961e-014
rhumerus -13.7208 9.64388 -81.1417
rradius 135.786
rwrist -3.82137
rhand -5.78347 25.1794
rfingers 7.12502
rthumb 20.0405 -363.807
lclavicle 3.74461e-014 -1.69961e-014
lhumerus 1.1978 -7.13812 84.9064
lradius 134.845
lwrist 8.94135
lhand -4.83373 10.8725
lfingers 7.12502
lthumb 20.9532 39.7608
rfemur -5.75735 -4.12466 20.5754
rtibia 49.6066
rfoot -17.3491 -17.0775
rtoes -25.5889
lfemur -31.5663 2.37304 2.11785
ltibia 51.4955
lfoot 0.157116 -13.2647
ltoes -33.3719
1920
root -11.3289 16.7374 8.73732 1.68661 2.128 -4.48471
lowerback 16.1674 2.31385 4.83205
upperback 1.30352 4.00921 1.03216
thorax -7.40732 1.80342 -2.50946
lowerneck -14.5754 0.549765 -7.58931
upperneck 16.0441 2.10724 1.943
head 7.23234 0.728873 2.09618
rclavicle -4.68883e-014 9.54166e-015
rhumerus -13.7203 9.90138 -81.4746
rradius 135.255
rwrist -3.33204
rhand -6.45931 25.1871
rfingers 7.12502
rthumb 19.3908 -363.866
lclavicle -4.68883e-014 9.54166e-015
lhumerus 0.433718 -7.13026 85.2901
lradius 135.241
lwrist 8.60899
lhand -4.50101 10.9616
lfingers 7.12502
lthumb 21.2728 39.8142
rfemur -6.32683 -4.72203 20.5957
rtibia 50.4425
rfoot -19.0422 -17.254
rtoes -26.2146
lfemur -32.2833 2.8572 2.56536
ltibia 53.267
lfoot -0.384085 -13.1501
ltoes -32.8727
1921
root -11.3169 16.6459 8.65352 1.55495 1.5054 -4.98243
lowerback 17.0926 2.42282 5.32363
upperback 1.25506 4.32026 1.23599
thorax -7.93061 1.91906 -2.68919
lowerneck -14.6389 0.532939 -7.51518
upperneck 15.7202 2.10111 1.76098
head 7.14161 0.721459 2.01987
rclavicle 6.69904e-014 2.98177e-014
rhumerus -13.5165 10.2581 -81.6468
rradius 134.772
rwrist -2.96809
rhand -7.13981 24.2735
rfingers 7.12502
rthumb 18.7364 -364.844
lclavicle 6.69904e-014 2.98177e-014
lhumerus -0.310873 -7.12845 85.7124
lradius 135.575
lwrist 8.381
lhand -4.86861 10.3921
lfingers 7.12502
lthumb 20.9197 39.284
rfemur -7.16511 -5.28232 20.8645
rtibia 51.5145
rfoot -19.9753 -17.3503
rtoes -27.0312
lfemur -32.9148 3.36583 3.2128
ltibia 54.6675
lfoot -1.08712 -13.5006
ltoes -32.5494
1922
root -11.3087 16.5681 8.5845 1.45776 0.939905 -5.28771
lowerback 17.3012 2.49543 5.45815
upperback 1.64987 4.45315 1.46467
thorax -7.61473 1.99918 -2.54785
lowerneck -15.1596 0.562393 -7.62636
upperneck 15.4616 2.18552 1.87264
head 7.14032 0.771838 2.08455
rclavicle 1.82882e-014 -1.0138e-014
rhumerus -12.5296 10.5842 -81.4924
rradius 134.178
rwrist -2.96392
rhand -7.3972 23.0474
rfingers 7.12502
rthumb 18.4888 -366.094
lclavicle 1.82882e-014 -1.0138e-014
lhumerus -0.509287 -6.98752 86.0776
lradius 135.986
lwrist 8.21445
lhand -5.13665 10.2728
lfingers 7.12502
lthumb 20.6621 39.193
rfemur -7.97787 -5.92041 20.9085
rtibia 52.6726
rfoot -20.4473 -17.1071
rtoes -26.8698
lfemur -33.4003 3.72976 3.6064
ltibia 55.6697
lfoot -1.75282 -13.8242
ltoes -32.8565
1923
root -11.3013 16.5128 8.53332 1.34823 0.483062 -5.02701
lowerback 16.8511 2.54606 4.96486
upperback 2.44244 4.36504 1.5712
thorax -6.56248 2.02042 -2.08581
lowerneck -15.7849 0.671829 -7.48064
upperneck 14.8736 2.3754 1.6939
head 7.05099 0.869217 2.01985
rclavicle -1.39149e-014 1.09332e-014
rhumerus -10.9443 10.8897 -81.231
rradius 133.541
rwrist -2.96269
rhand -7.44385 22.5287
rfingers 7.12502
rthumb 18.4439 -366.617
lclavicle -1.39149e-014 1.09332e-014
lhumerus -0.114973 -6.70005 86.374
lradius 136.489
lwrist 8.26722
lhand -4.654 10.9837
lfingers 7.12502
lthumb 21.1258 39.8527
rfemur -8.61208 -6.7544 20.2226
rtibia 53.7901
rfoot -21.0073 -16.5255
rtoes -26.1751
lfemur -33.6125 3.89115 3.30197
ltibia 56.3071
lfoot -2.23478 -13.6452
ltoes -32.5458
1924
root -11.295 16.4734 8.48579 1.24156 0.0150412 -4.49708
lowerback 16.6705 2.64031 4.12398
upperback 3.01459 4.30343 1.59958
thorax -5.91904 2.03492 -1.5435
lowerneck -15.9704 0.816966 -7.1552
upperneck 14.0209 2.55445 1.35728
head 6.80587 0.964061 1.86571
rclavicle -1.39149e-015 -2.38542e-015
rhumerus -9.91549 11.1805 -81.197
rradius 133.011
rwrist -2.70109
rhand -7.68599 22.1403
rfingers 7.12502
rthumb 18.211 -367.027
lclavicle -1.39149e-015 -2.38542e-015
lhumerus -0.0333287 -6.61699 86.7108
lradius 136.825
lwrist 8.25857
lhand -4.58726 10.9104
lfingers 7.12502
lthumb 21.1899 39.7723
rfemur -9.20282 -7.4635 19.2308
rtibia 54.7981
rfoot -21.4612 -15.8208
rtoes -26.1694
lfemur -33.645 3.9921 2.68372
ltibia 56.6553
lfoot -2.57158 -13.1384
ltoes -31.3254
1925
root -11.2821 16.4457 8.44568 1.21016 -0.483901 -4.09191
lowerback 16.731 2.648 3.46318
upperback 3.25233 4.18803 1.56589
thorax -5.74891 1.99627 -1.18151
lowerneck -16.0577 1.03437 -6.80065
upperneck 13.5678 2.77491 1.29278
head 6.66878 1.09451 1.80442
rclavicle -1.0138e-014 -3.97569e-015
rhumerus -9.57009 11.5567 -81.5767
rradius 132.542
rwrist -2.33281
rhand -7.74044 21.0749
rfingers 7.12502
rthumb 18.1586 -368.098
lclavicle -1.0138e-014 -3.97569e-015
lhumerus -0.457293 -6.56792 86.8385
lradius 136.998
lwrist 8.21767
lhand -5.2699 10.0222
lfingers 7.12502
lthumb 20.5341 38.9563
rfemur -9.81856 -8.00737 18.3466
rtibia 55.6803
rfoot -21.7256 -14.9635
rtoes -26.2813
lfemur -33.7012 4.10948 2.18278
ltibia 56.8855
lfoot -2.85161 -12.8341
ltoes -30.0714
1926
root -11.2619 16.4351 8.41761 1.19131 -0.944045 -3.70145
lowerback 16.7178 2.58265 2.95489
upperback 3.4292 3.99732 1.43724
thorax -5.58626 1.91528 -0.987196
lowerneck -16.3172 1.24312 -6.37629
upperneck 13.6454 2.95562 1.42587
head 6.73209 1.2134 1.80159
rclavicle 3.67752e-015 7.95139e-015
rhumerus -9.46929 11.935 -82.1238
rradius 132.275
rwrist -1.97686
rhand -7.85321 20.3836
rfingers 7.12502
rthumb 18.0501 -368.799
lclavicle 3.67752e-015 7.95139e-015
lhumerus -0.80029 -6.52204 86.7564
lradius 137.045
lwrist 8.0633
lhand -5.75741 9.59866
lfingers 7.12502
lthumb 20.0655 38.5825
rfemur -10.3005 -8.49717 17.4184
rtibia 56.3984
rfoot -22.1548 -13.6833
rtoes -26.6861
lfemur -33.6559 4.33601 1.64019
ltibia 57.0897
lfoot -3.27694 -12.8136
ltoes -29.3296
